# xmcd
#
# Track frame offsets:
#       150
#       42120
#       77733
#       103845
#       123428
#       160390
#       183023
#       205165
#       222973
#       254293
#       269073
#       286135
#
# Disc length: 4369 seconds
#
# Revision: 0
# Processed by: cddbd v1.4PL0 Copyright (c) Steve Scherf et al.
# Submitted via: WhereIsIt 3.24
#
DISCID=ac110f0c
DTITLE=Nagy Feró Produkció
DYEAR=1900
DGENRE=
TTITLE0=XX. szazad
TTITLE1=Nagyvarosi farkas
TTITLE2=Taho vakera
TTITLE3=Nekem nem tanulsz
TTITLE4=Kommunista blokk
TTITLE5=Boldog szep napok
TTITLE6=Nyolc ora munka
TTITLE7=Szalto
TTITLE8=Kanasz, Tul az operencian
TTITLE9=Jarom az utam - Tul keso mar
TTITLE10=Tutojgass meg
TTITLE11=O. mit tett velem ez a Jeno
EXTD=HB archive
EXTT0=
EXTT1=
EXTT2=
EXTT3=
EXTT4=
EXTT5=
EXTT6=
EXTT7=
EXTT8=
EXTT9=
EXTT10=
EXTT11=
PLAYORDER=
